<svg width="16" height="16" viewBox="0 0 16 16" fill="none" xmlns="http://www.w3.org/2000/svg">
    <path d="M8 3.33334C10.7267 3.33334 13.0933 4.94001 14.1067 7.33334C13.0933 9.72668 10.7267 11.3333 8 11.3333C5.27334 11.3333 2.90667 9.72668 1.89334 7.33334C2.90667 4.94001 5.27334 3.33334 8 3.33334ZM8 2C4.66667 2 1.82 4.07334 0.666672 7.33334C1.82 10.5933 4.66667 12.6667 8 12.6667C11.3333 12.6667 14.18 10.5933 15.3333 7.33334C14.18 4.07334 11.3333 2 8 2ZM8 5.33334C8.88667 5.33334 9.6 6.04668 9.6 6.93334C9.6 7.82001 8.88667 8.53334 8 8.53334C7.11334 8.53334 6.4 7.82001 6.4 6.93334C6.4 6.04668 7.11334 5.33334 8 5.33334ZM8 4C6.42 4 5.13334 5.28668 5.13334 6.93334C5.13334 8.58001 6.42 9.86668 8 9.86668C9.58 9.86668 10.8667 8.58001 10.8667 6.93334C10.8667 5.28668 9.58 4 8 4Z" fill="#B7B7C9"/>
</svg> 